<svg xmlns="http://www.w3.org/2000/svg" xmlns:xlink="http://www.w3.org/1999/xlink" width="1920" zoomAndPan="magnify" viewBox="0 0 1440 809.999993" height="1080" preserveAspectRatio="xMidYMid meet" version="1.2"><defs/><g id="a5f86c21d4"><g style="fill:#bf0000;fill-opacity:1;"><g transform="translate(104.52689, 508.87498)"><path style="stroke:none" d="M 116.203125 6.296875 C 108.503906 6.296875 105.238281 1.28125 106.40625 -8.75 C 87.269531 2.6875 67.664062 7.003906 47.59375 4.203125 C 36.164062 2.566406 27.066406 -0.695312 20.296875 -5.59375 C 13.535156 -10.5 8.632812 -16.273438 5.59375 -22.921875 C 2.5625 -29.578125 0.867188 -36.40625 0.515625 -43.40625 C 0.171875 -50.40625 0.46875 -56.820312 1.40625 -62.65625 C 3.269531 -72.21875 7.757812 -80.207031 14.875 -86.625 C 21.988281 -93.039062 30.617188 -98.054688 40.765625 -101.671875 C 50.921875 -105.285156 61.132812 -107.328125 71.40625 -107.796875 L 106.40625 -109.90625 C 105.9375 -116.4375 105.347656 -121.625 104.640625 -125.46875 C 103.941406 -129.320312 102.019531 -132.003906 98.875 -133.515625 C 95.726562 -135.035156 89.835938 -135.679688 81.203125 -135.453125 C 77.234375 -135.453125 74.253906 -134.398438 72.265625 -132.296875 C 70.285156 -130.203125 68.65625 -127.867188 67.375 -125.296875 C 66.09375 -122.734375 64.691406 -120.515625 63.171875 -118.640625 C 61.660156 -116.773438 59.382812 -116.078125 56.34375 -116.546875 L 18.546875 -121.453125 C 15.285156 -121.921875 12.78125 -122.675781 11.03125 -123.71875 C 9.28125 -124.769531 8.40625 -126.695312 8.40625 -129.5 C 8.40625 -138.132812 9.507812 -146.125 11.71875 -153.46875 C 13.9375 -160.820312 18.488281 -167.238281 25.375 -172.71875 C 32.257812 -178.207031 42.582031 -182.46875 56.34375 -185.5 C 70.8125 -188.769531 84.8125 -190.285156 98.34375 -190.046875 C 111.882812 -189.816406 124.195312 -187.660156 135.28125 -183.578125 C 146.363281 -179.492188 155.460938 -173.25 162.578125 -164.84375 C 169.691406 -156.445312 174.066406 -145.597656 175.703125 -132.296875 C 175.929688 -130.429688 176.160156 -123.609375 176.390625 -111.828125 C 176.628906 -100.046875 176.863281 -84.878906 177.09375 -66.328125 C 177.332031 -47.773438 177.453125 -27.300781 177.453125 -4.90625 C 177.921875 -1.632812 176.8125 0.988281 174.125 2.96875 C 171.4375 4.957031 169.046875 5.953125 166.953125 5.953125 Z M 94.5 -75.953125 C 87.269531 -75.953125 81.90625 -74.082031 78.40625 -70.34375 C 74.90625 -66.613281 73.210938 -62.238281 73.328125 -57.21875 C 73.441406 -52.207031 75.363281 -47.832031 79.09375 -44.09375 C 82.832031 -40.363281 88.316406 -38.5 95.546875 -38.5 C 99.742188 -38.5 101.84375 -40.132812 101.84375 -43.40625 L 101.84375 -71.046875 C 101.84375 -74.316406 99.394531 -75.953125 94.5 -75.953125 Z M 94.5 -75.953125 "/></g></g><g style="fill:#bf0000;fill-opacity:1;"><g transform="translate(295.973785, 508.87498)"><path style="stroke:none" d="M 119 0.34375 C 115.726562 0.34375 112.8125 -1.050781 110.25 -3.84375 C 110.25 -3.84375 110.191406 -3.84375 110.078125 -3.84375 C 109.960938 -3.84375 109.90625 -3.960938 109.90625 -4.203125 C 87.5 1.628906 68.535156 3.4375 53.015625 1.21875 C 37.503906 -0.988281 25.78125 -8.976562 17.84375 -22.75 C 10.613281 -35.582031 5.421875 -50.457031 2.265625 -67.375 C -0.878906 -84.289062 -1.050781 -100.566406 1.75 -116.203125 C 4.78125 -133.460938 10.613281 -148.101562 19.25 -160.125 C 27.882812 -172.144531 39.785156 -180.71875 54.953125 -185.84375 C 70.117188 -190.976562 89.019531 -191.5625 111.65625 -187.59375 L 113.046875 -231.703125 C 113.046875 -235.671875 114.210938 -238.9375 116.546875 -241.5 C 119.117188 -244.0625 122.035156 -245.34375 125.296875 -245.34375 L 169.75 -245.703125 C 173.019531 -245.703125 175.820312 -244.300781 178.15625 -241.5 C 180.488281 -238.9375 181.65625 -235.785156 181.65625 -232.046875 L 180.953125 -12.953125 C 180.953125 -8.753906 179.785156 -5.488281 177.453125 -3.15625 C 174.878906 -0.582031 172.078125 0.703125 169.046875 0.703125 Z M 71.046875 -89.25 C 71.285156 -75.945312 73.96875 -66.144531 79.09375 -59.84375 C 84.226562 -53.550781 91.460938 -52.15625 100.796875 -55.65625 C 103.597656 -56.582031 105.523438 -58.09375 106.578125 -60.1875 C 107.628906 -62.289062 108.269531 -65.210938 108.5 -68.953125 L 108.5 -77 L 109.546875 -111.65625 L 109.546875 -112.34375 C 109.785156 -115.144531 108.5625 -118.757812 105.875 -123.1875 C 103.1875 -127.625 100.210938 -130.660156 96.953125 -132.296875 C 90.648438 -134.628906 85.628906 -134.101562 81.890625 -130.71875 C 78.160156 -127.34375 75.421875 -122.15625 73.671875 -115.15625 C 71.921875 -108.15625 71.046875 -99.988281 71.046875 -90.65625 Z M 71.046875 -89.25 "/></g></g><g style="fill:#bf0000;fill-opacity:1;"><g transform="translate(491.620665, 508.87498)"><path style="stroke:none" d="M 119 0.34375 C 115.726562 0.34375 112.8125 -1.050781 110.25 -3.84375 C 110.25 -3.84375 110.191406 -3.84375 110.078125 -3.84375 C 109.960938 -3.84375 109.90625 -3.960938 109.90625 -4.203125 C 87.5 1.628906 68.535156 3.4375 53.015625 1.21875 C 37.503906 -0.988281 25.78125 -8.976562 17.84375 -22.75 C 10.613281 -35.582031 5.421875 -50.457031 2.265625 -67.375 C -0.878906 -84.289062 -1.050781 -100.566406 1.75 -116.203125 C 4.78125 -133.460938 10.613281 -148.101562 19.25 -160.125 C 27.882812 -172.144531 39.785156 -180.71875 54.953125 -185.84375 C 70.117188 -190.976562 89.019531 -191.5625 111.65625 -187.59375 L 113.046875 -231.703125 C 113.046875 -235.671875 114.210938 -238.9375 116.546875 -241.5 C 119.117188 -244.0625 122.035156 -245.34375 125.296875 -245.34375 L 169.75 -245.703125 C 173.019531 -245.703125 175.820312 -244.300781 178.15625 -241.5 C 180.488281 -238.9375 181.65625 -235.785156 181.65625 -232.046875 L 180.953125 -12.953125 C 180.953125 -8.753906 179.785156 -5.488281 177.453125 -3.15625 C 174.878906 -0.582031 172.078125 0.703125 169.046875 0.703125 Z M 71.046875 -89.25 C 71.285156 -75.945312 73.96875 -66.144531 79.09375 -59.84375 C 84.226562 -53.550781 91.460938 -52.15625 100.796875 -55.65625 C 103.597656 -56.582031 105.523438 -58.09375 106.578125 -60.1875 C 107.628906 -62.289062 108.269531 -65.210938 108.5 -68.953125 L 108.5 -77 L 109.546875 -111.65625 L 109.546875 -112.34375 C 109.785156 -115.144531 108.5625 -118.757812 105.875 -123.1875 C 103.1875 -127.625 100.210938 -130.660156 96.953125 -132.296875 C 90.648438 -134.628906 85.628906 -134.101562 81.890625 -130.71875 C 78.160156 -127.34375 75.421875 -122.15625 73.671875 -115.15625 C 71.921875 -108.15625 71.046875 -99.988281 71.046875 -90.65625 Z M 71.046875 -89.25 "/></g></g><g style="fill:#bf0000;fill-opacity:1;"><g transform="translate(687.267523, 508.87498)"><path style="stroke:none" d="M 13.296875 2.453125 C 9.796875 2.453125 6.820312 1.460938 4.375 -0.515625 C 1.925781 -2.503906 0.703125 -5.132812 0.703125 -8.40625 L 0 -182.703125 C 0 -185.503906 1.28125 -188.007812 3.84375 -190.21875 C 6.414062 -192.4375 9.332031 -193.546875 12.59375 -193.546875 L 58.09375 -193.546875 C 61.59375 -193.546875 64.625 -192.550781 67.1875 -190.5625 C 69.757812 -188.582031 71.046875 -185.960938 71.046875 -182.703125 L 74.90625 -8.75 C 75.363281 -5.476562 74.019531 -2.851562 70.875 -0.875 C 67.726562 1.101562 64.753906 2.09375 61.953125 2.09375 Z M 4.90625 -225.75 C 1.863281 -233.445312 1.566406 -240.503906 4.015625 -246.921875 C 6.472656 -253.335938 10.734375 -258.53125 16.796875 -262.5 C 22.867188 -266.46875 29.753906 -268.453125 37.453125 -268.453125 C 46.546875 -268.453125 54.535156 -265.535156 61.421875 -259.703125 C 68.304688 -253.867188 71.75 -246.519531 71.75 -237.65625 C 71.75 -230.882812 69.765625 -224.929688 65.796875 -219.796875 C 61.828125 -214.660156 56.925781 -211.160156 51.09375 -209.296875 C 41.757812 -205.796875 32.601562 -205.796875 23.625 -209.296875 C 14.644531 -212.796875 8.40625 -218.28125 4.90625 -225.75 Z M 4.90625 -225.75 "/></g></g><g style="fill:#bf0000;fill-opacity:1;"><g transform="translate(776.166093, 508.87498)"><path style="stroke:none" d="M 9.453125 5.25 C 6.421875 4.550781 4.4375 3.035156 3.5 0.703125 C 2.5625 -1.628906 2.09375 -4.3125 2.09375 -7.34375 L 2.09375 -47.59375 C 2.09375 -51.09375 3.84375 -53.484375 7.34375 -54.765625 C 10.84375 -56.054688 15.160156 -56.703125 20.296875 -56.703125 C 25.429688 -56.703125 30.625 -56.523438 35.875 -56.171875 C 41.125 -55.828125 45.613281 -55.769531 49.34375 -56 C 55.414062 -56.46875 59.5 -57.984375 61.59375 -60.546875 C 63.695312 -63.117188 63.816406 -66.035156 61.953125 -69.296875 C 60.085938 -72.566406 56.117188 -75.367188 50.046875 -77.703125 C 32.546875 -84.234375 19.828125 -91.234375 11.890625 -98.703125 C 3.960938 -106.171875 0 -116.320312 0 -129.15625 C 0 -138.945312 1.398438 -147.8125 4.203125 -155.75 C 7.003906 -163.6875 12.253906 -170.6875 19.953125 -176.75 C 27.421875 -182.8125 36.695312 -186.660156 47.78125 -188.296875 C 58.863281 -189.929688 69.300781 -190.863281 79.09375 -191.09375 C 82.132812 -191.09375 86.6875 -191.09375 92.75 -191.09375 C 98.8125 -191.09375 105.164062 -190.914062 111.8125 -190.5625 C 118.46875 -190.21875 124.363281 -189.632812 129.5 -188.8125 C 134.632812 -188 137.898438 -186.894531 139.296875 -185.5 C 140.460938 -184.332031 141.160156 -182.460938 141.390625 -179.890625 C 141.628906 -177.328125 141.75 -172.953125 141.75 -166.765625 C 141.75 -160.585938 141.632812 -151.195312 141.40625 -138.59375 C 141.40625 -131.832031 137.550781 -128.453125 129.84375 -128.453125 C 125.644531 -128.453125 120.921875 -128.625 115.671875 -128.96875 C 110.421875 -129.320312 105.460938 -129.441406 100.796875 -129.328125 C 96.128906 -129.210938 92.515625 -128.570312 89.953125 -127.40625 C 85.515625 -125.769531 83.003906 -122.96875 82.421875 -119 C 81.835938 -115.03125 84.347656 -111.765625 89.953125 -109.203125 C 93.210938 -107.566406 97.234375 -105.816406 102.015625 -103.953125 C 106.804688 -102.085938 111.535156 -100.101562 116.203125 -98 C 129.265625 -91.9375 138.300781 -83.535156 143.3125 -72.796875 C 148.332031 -62.066406 149.09375 -50.164062 145.59375 -37.09375 C 144.195312 -31.5 142.15625 -26.132812 139.46875 -21 C 136.789062 -15.863281 133 -11.3125 128.09375 -7.34375 C 118.0625 0.351562 102.601562 4.722656 81.71875 5.765625 C 60.84375 6.816406 36.753906 6.644531 9.453125 5.25 Z M 9.453125 5.25 "/></g></g><g style="fill:#bf0000;fill-opacity:1;"><g transform="translate(930.863613, 508.87498)"><path style="stroke:none" d="M 64.40625 1.75 C 48.769531 -2.445312 36.34375 -7.8125 27.125 -14.34375 C 17.90625 -20.882812 11.253906 -29.695312 7.171875 -40.78125 C 3.085938 -51.863281 0.695312 -66.035156 0 -83.296875 C 0.695312 -100.796875 3.144531 -116.367188 7.34375 -130.015625 C 11.550781 -143.671875 18.203125 -155.164062 27.296875 -164.5 C 36.398438 -173.832031 48.769531 -180.71875 64.40625 -185.15625 C 72.332031 -187.488281 81.425781 -188.769531 91.6875 -189 C 101.957031 -189.226562 112.109375 -188.410156 122.140625 -186.546875 C 132.179688 -184.679688 140.9375 -181.648438 148.40625 -177.453125 C 164.738281 -168.347656 175.703125 -156.035156 181.296875 -140.515625 C 186.898438 -125.003906 190.164062 -106.632812 191.09375 -85.40625 C 191.09375 -69.070312 188.0625 -54.078125 182 -40.421875 C 175.9375 -26.773438 164.738281 -15.398438 148.40625 -6.296875 C 140.9375 -2.328125 132.179688 0.585938 122.140625 2.453125 C 112.109375 4.316406 101.957031 5.128906 91.6875 4.890625 C 81.425781 4.660156 72.332031 3.613281 64.40625 1.75 Z M 74.90625 -89.25 C 75.132812 -78.28125 77.289062 -69.9375 81.375 -64.21875 C 85.457031 -58.507812 90.125 -55.535156 95.375 -55.296875 C 100.625 -55.066406 105.40625 -57.632812 109.71875 -63 C 114.039062 -68.363281 116.4375 -76.414062 116.90625 -87.15625 C 116.90625 -101.15625 114.742188 -111.882812 110.421875 -119.34375 C 106.109375 -126.8125 101.207031 -130.78125 95.71875 -131.25 C 90.238281 -131.71875 85.398438 -128.507812 81.203125 -121.625 C 77.003906 -114.738281 74.90625 -103.945312 74.90625 -89.25 Z M 74.90625 -89.25 "/></g></g><g style="fill:#bf0000;fill-opacity:1;"><g transform="translate(1135.960313, 508.87498)"><path style="stroke:none" d="M 122.5 3.15625 C 119.695312 3.15625 117.25 1.753906 115.15625 -1.046875 C 113.050781 -3.847656 112 -7 112 -10.5 L 112.703125 -97.296875 C 112.003906 -109.429688 109.671875 -119.054688 105.703125 -126.171875 C 101.734375 -133.285156 95.429688 -135.328125 86.796875 -132.296875 C 83.765625 -130.898438 80.734375 -128.800781 77.703125 -126 C 74.671875 -123.195312 72.921875 -119 72.453125 -113.40625 L 74.90625 -8.75 C 75.363281 -5.476562 74.019531 -2.851562 70.875 -0.875 C 67.726562 1.101562 64.753906 2.09375 61.953125 2.09375 L 13.296875 2.453125 C 9.796875 2.453125 6.820312 1.460938 4.375 -0.515625 C 1.925781 -2.503906 0.703125 -5.132812 0.703125 -8.40625 L 0 -179.203125 C 0 -182.003906 1.28125 -184.507812 3.84375 -186.71875 C 6.414062 -188.9375 9.332031 -190.046875 12.59375 -190.046875 L 58.09375 -190.046875 C 62.0625 -190.046875 65.097656 -189 67.203125 -186.90625 C 85.171875 -190.40625 101.445312 -191.394531 116.03125 -189.875 C 130.613281 -188.351562 142.570312 -184.796875 151.90625 -179.203125 C 160.300781 -174.296875 166.832031 -168.984375 171.5 -163.265625 C 176.164062 -157.554688 179.429688 -150.910156 181.296875 -143.328125 C 183.160156 -135.742188 184.328125 -126.703125 184.796875 -116.203125 C 185.265625 -105.703125 185.5 -93.21875 185.5 -78.75 L 185.15625 -10.5 C 185.15625 -6.769531 184.101562 -3.617188 182 -1.046875 C 179.664062 1.753906 177.097656 3.15625 174.296875 3.15625 Z M 122.5 3.15625 "/></g></g></g></svg>